<svg width="44" height="44" viewBox="0 0 44 44" fill="none" xmlns="http://www.w3.org/2000/svg">
<circle cx="21.8932" cy="21.7423" r="21.3932" fill="white" fill-opacity="0.8"/>
<path d="M15.1479 10.4605C14.8298 10.4601 14.5148 10.5224 14.2208 10.6439C13.9268 10.7654 13.6597 10.9436 13.4346 11.1684C13.2096 11.3932 13.031 11.6602 12.9092 11.954C12.7874 12.2479 12.7247 12.5628 12.7247 12.8809C12.7247 14.2195 13.8093 15.3289 15.1452 15.3289C16.4829 15.3289 17.5684 14.2195 17.5684 12.8828C17.5687 12.5648 17.5062 12.2498 17.3847 11.9559C17.2632 11.662 17.0849 11.395 16.8601 11.17C16.6353 10.9451 16.3684 10.7666 16.0746 10.6449C15.7809 10.5231 15.466 10.4605 15.1479 10.4605ZM26.968 16.8784C24.9335 16.8784 23.77 17.942 23.2107 19H23.152V17.1636H19.1427V30.6312H23.3207V23.9648C23.3207 22.2081 23.4528 20.5101 25.6266 20.5101C27.7693 20.5101 27.8005 22.5134 27.8005 24.0757V30.6312H31.9786V23.234C31.9786 19.6143 31.2002 16.8784 26.968 16.8784ZM13.0575 17.1626V30.6312H17.2384V17.1626H13.0575Z" fill="#020024"/>
</svg>
