<svg width="21" height="20" viewBox="0 0 21 20" fill="none" xmlns="http://www.w3.org/2000/svg">
<path d="M10.3738 -0.00012207C15.8966 -0.00012207 20.3738 4.47703 20.3738 9.99988C20.3738 15.5227 15.8966 19.9999 10.3738 19.9999C4.85093 19.9999 0.373779 15.5227 0.373779 9.99988C0.373779 4.47703 4.85093 -0.00012207 10.3738 -0.00012207ZM10.3738 1.49988C5.67936 1.49988 1.87378 5.30546 1.87378 9.99988C1.87378 14.6943 5.67936 18.4999 10.3738 18.4999C15.0682 18.4999 18.8738 14.6943 18.8738 9.99988C18.8738 5.30546 15.0682 1.49988 10.3738 1.49988ZM9.12378 11.4392L13.5935 6.96955C13.8864 6.67666 14.3612 6.67666 14.6541 6.96955C14.9204 7.23582 14.9446 7.65248 14.7267 7.94609L14.6541 8.03018L9.65408 13.0302C9.38788 13.2965 8.97118 13.3207 8.67758 13.1028L8.59348 13.0302L6.09345 10.5302C5.80056 10.2373 5.80056 9.76248 6.09345 9.46958C6.35972 9.20328 6.77638 9.17908 7.06999 9.39698L7.15411 9.46958L9.12378 11.4392Z" fill="#020024"/>
</svg>
