<svg width="174" height="42" viewBox="0 0 174 42" fill="none" xmlns="http://www.w3.org/2000/svg">
<path d="M0.928719 41.6266H42.2576V0.373413H0.928719V41.6266Z" fill="white"/>
<path d="M19.1509 18.5535C25.6634 18.5535 25.6634 18.5535 25.6634 18.5535C26.6836 18.5535 27.7003 17.575 27.7003 16.1093C27.7003 14.7634 26.8862 13.7849 25.4608 13.7849C14.6718 13.7849 14.6717 13.7849 14.6717 13.7849C14.6717 28.3424 14.6717 28.3424 14.6717 28.3424C25.7664 28.3424 25.7665 28.3424 25.7665 28.3424C27.5972 28.4622 28.6174 27.2401 28.6174 25.6506C28.6174 23.9372 27.5972 22.8349 25.8695 22.9587C17.0143 22.9587 17.0143 22.9587 17.0143 22.9587C19.1509 18.5535 19.1509 18.5535 19.1509 18.5535ZM33.0931 25.8942C33.0931 29.6884 30.4482 32.5 26.1752 32.5C10.093 32.5 10.0931 32.5 10.0931 32.5C10.0931 9.50349 10.0931 9.50349 10.0931 9.50349C26.0722 9.50349 26.0721 9.50349 26.0721 9.50349C29.7372 9.37973 32.1794 12.5628 32.1794 16.1093C32.1794 19.4122 30.2455 20.6343 30.2455 20.6343C30.2455 20.6343 33.0931 21.9803 33.0931 25.8942Z" fill="#909090"/>
<path d="M70.8751 23.5706C70.8751 22.5422 70.2311 21.8998 69.0727 21.8998C61.3475 21.8998 61.3475 21.8998 61.3475 21.8998C61.3475 25.2413 61.3475 25.2413 61.3475 25.2413C69.0727 25.2413 69.0727 25.2413 69.0727 25.2413C70.2311 25.3698 70.8751 24.5986 70.8751 23.5706ZM70.3602 17.9159C70.3602 17.0164 69.7162 16.3736 68.815 16.3736C61.3475 16.3736 61.3475 16.3736 61.3475 16.3736C61.3475 19.3295 61.3475 19.3295 61.3475 19.3295C68.9436 19.3295 68.9436 19.3295 68.9436 19.3295C69.5876 19.3295 70.3602 18.6867 70.3602 17.9159ZM74.0937 23.8274C74.0937 26.1409 72.1626 27.8117 69.2013 27.8117C58.2576 27.8117 58.2576 27.8117 58.2576 27.8117C58.2576 13.8032 58.2576 13.8032 58.2576 13.8032C69.2013 13.8032 69.2013 13.8032 69.2013 13.8032C71.7763 13.8032 73.3211 15.6024 73.3211 17.7871C73.3211 19.8435 72.034 20.4863 72.034 20.4863C72.034 20.4863 74.0937 21.3859 74.0937 23.8274Z" fill="white"/>
<path d="M83.6212 18.0444C80.789 18.0444 79.2438 19.7151 79.2438 21.8999C79.2438 24.0846 80.789 25.6266 83.6212 25.6266C86.3249 25.6266 87.9987 24.0846 87.9987 21.8999C87.9987 19.7151 86.3249 18.0444 83.6212 18.0444ZM83.6212 28.1968C79.1151 28.1968 76.0252 25.4982 76.0252 21.8999C76.0252 18.3016 79.1151 15.6024 83.6212 15.6024C88.1278 15.6024 91.0887 18.3016 91.0887 21.8999C91.0887 25.3698 88.1278 28.1968 83.6212 28.1968Z" fill="white"/>
<path d="M150.314 18.0444C147.611 18.0444 145.938 19.7151 145.938 21.8999C145.938 24.0846 147.611 25.6266 150.314 25.6266C153.147 25.6266 154.69 24.0846 154.69 21.8999C154.69 19.7151 153.147 18.0444 150.314 18.0444ZM150.314 28.1968C145.808 28.1968 142.845 25.4982 142.845 21.8999C142.845 18.3016 145.808 15.6024 150.314 15.6024C154.82 15.6024 157.91 18.3016 157.91 21.8999C157.91 25.3698 154.82 28.1968 150.314 28.1968Z" fill="white"/>
<path d="M100.1 28.1968C95.8541 28.1968 93.4077 26.2693 93.4077 23.699C93.4077 15.8596 93.4077 15.8596 93.4077 15.8596C96.4973 15.8596 96.4973 15.8596 96.4973 15.8596C96.4973 23.4418 96.4973 23.4418 96.4973 23.4418C96.4973 24.8558 97.7835 25.6266 100.1 25.6266C102.546 25.6266 103.837 24.8558 103.837 23.4418C103.837 15.8597 103.837 15.8596 103.837 15.8596C106.796 15.8596 106.796 15.8596 106.796 15.8596C106.796 23.699 106.796 23.699 106.796 23.699C106.796 26.2693 104.349 28.1968 100.1 28.1968Z" fill="white"/>
<path d="M120.314 19.7151C120.314 18.9439 119.801 18.3016 118.771 18.3016C113.105 18.3016 113.105 18.3016 113.105 18.3016C113.105 21.3859 113.105 21.3859 113.105 21.3859C118.897 21.3859 118.897 21.3859 118.897 21.3859C119.801 21.3859 120.314 20.6147 120.314 19.7151ZM120.444 27.8117C117.868 23.9562 117.868 23.9562 117.868 23.9562C113.105 23.9562 113.105 23.9562 113.105 23.9562C113.105 27.8117 113.105 27.8117 113.105 27.8117C110.016 27.8117 110.016 27.8117 110.016 27.8117C110.016 15.8596 110.016 15.8596 110.016 15.8596C119.158 15.8596 119.158 15.8596 119.158 15.8596C121.731 15.8596 123.404 17.5304 123.404 19.9719C123.404 21.6426 122.634 22.9278 121.088 23.5706C123.921 27.8117 123.921 27.8117 123.921 27.8117H120.444Z" fill="white"/>
<path d="M170.785 23.8274C170.915 23.8274 170.915 23.8274 170.915 23.8274C170.915 15.8597 170.915 15.8596 170.915 15.8596C174.005 15.8596 174.005 15.8596 174.005 15.8596C174.005 27.8117 174.005 27.8117 174.005 27.8117C170.398 27.8117 170.398 27.8117 170.398 27.8117C170.398 27.8117 163.702 19.9719 163.576 19.9719C163.576 27.8117 163.576 27.8117 163.576 27.8117C160.487 27.8117 160.487 27.8117 160.487 27.8117C160.487 15.8596 160.487 15.8596 160.487 15.8596C164.089 15.8596 164.089 15.8596 164.089 15.8596C170.785 23.8274 170.785 23.8274 170.785 23.8274Z" fill="white"/>
<path d="M137.309 24.213C137.309 23.4418 136.796 22.9278 135.766 22.9278C129.713 22.9278 129.713 22.9278 129.713 22.9278C129.713 25.6265 129.713 25.6266 129.713 25.6266C135.766 25.6266 135.766 25.6266 135.766 25.6266C136.796 25.6266 137.309 25.1125 137.309 24.213ZM136.922 19.3295C136.922 18.6867 136.409 18.1727 135.51 18.1727C129.713 18.1727 129.713 18.1727 129.713 18.1727C129.713 20.6147 129.713 20.6147 129.713 20.6147C135.636 20.6147 135.636 20.6147 135.636 20.6147C136.279 20.6147 136.922 20.1007 136.922 19.3295ZM140.529 24.3418C140.529 26.3977 138.986 27.8117 136.54 27.8117C126.754 27.8117 126.754 27.8117 126.754 27.8117C126.754 15.8596 126.754 15.8596 126.754 15.8596C136.539 15.8596 136.54 15.8596 136.54 15.8596C138.599 15.8596 140.016 17.5303 140.016 19.3295C140.016 21.0003 138.856 21.6426 138.856 21.6426C138.856 21.6426 140.529 22.4138 140.529 24.3418Z" fill="white"/>
</svg>
