<svg width="157" height="42" viewBox="0 0 157 42" fill="none" xmlns="http://www.w3.org/2000/svg">
<rect width="41.33" height="41.25" transform="translate(0.741333 0.375)" fill="white"/>
<path d="M21.8143 14.1122C22.0108 14.1125 22.2072 14.1107 22.4037 14.1087C24.893 14.0992 27.4146 14.8639 29.5498 16.1339C29.5498 16.1846 29.5498 16.2353 29.5498 16.2875C29.592 16.2951 29.6341 16.3026 29.6776 16.3103C30.2293 16.4764 30.7361 16.9127 31.163 17.2862C31.2226 17.3332 31.2821 17.3801 31.3434 17.4285C31.7726 17.7682 32.1719 18.1252 32.5603 18.5106C32.6046 18.5542 32.6489 18.5978 32.6946 18.6428C33.0068 18.9573 33.0068 18.9573 33.0068 19.13C33.051 19.147 33.0951 19.164 33.1406 19.1816C33.3676 19.3151 33.4766 19.4738 33.631 19.6869C33.6606 19.7278 33.6903 19.7686 33.7209 19.8107C33.784 19.8978 33.8469 19.9851 33.9096 20.0726C34.0029 20.202 34.0983 20.3296 34.1943 20.457C34.8818 21.3791 35.4244 22.3752 35.8973 23.4225C35.9236 23.4805 35.95 23.5385 35.9771 23.5982C36.0967 23.8715 36.1565 24.0513 36.1565 24.3539C34.0517 25.3823 31.7792 25.6166 29.4729 25.199C29.4176 25.1891 29.3623 25.1792 29.3053 25.169C28.0518 24.9393 26.8187 24.5885 25.6318 24.1235C25.5466 24.0906 25.4615 24.0577 25.3737 24.0238C24.6626 23.7448 23.9654 23.4378 23.2686 23.125C22.8927 22.9566 22.5156 22.7908 22.1376 22.6272C21.9826 22.5601 21.8279 22.4921 21.6742 22.422C21.2427 22.2334 20.7955 22.114 20.3406 21.9964C20.2781 21.9799 20.2155 21.9634 20.151 21.9464C16.7014 21.0905 12.5254 21.9465 9.52329 23.7541C9.05905 24.041 8.62321 24.3425 8.2278 24.7215C8.11617 24.8149 8.11617 24.8149 7.96252 24.8149C7.96252 24.8656 7.96252 24.9163 7.96252 24.9685C7.88647 24.9939 7.81042 25.0192 7.73206 25.0453C8.10982 22.801 9.44453 20.6847 10.8818 18.9763C10.9171 18.9315 10.9525 18.8866 10.9889 18.8404C11.2497 18.5098 11.5599 18.2476 11.8805 17.9776C11.9766 17.8961 12.0726 17.8145 12.1686 17.7328C12.2094 17.6984 12.2502 17.664 12.2922 17.6286C12.3872 17.5443 12.4781 17.4554 12.5668 17.3646C12.8452 17.0925 13.1725 16.8898 13.4938 16.6716C13.5815 16.6104 13.6693 16.549 13.757 16.4877C15.2235 15.472 16.8026 14.8984 18.5257 14.4534C18.5815 14.4387 18.6373 14.424 18.6949 14.4089C19.7231 14.1578 20.761 14.1095 21.8143 14.1122Z" fill="#909090"/>
<path d="M15.9904 22.6398C16.0821 22.6399 16.0821 22.6399 16.1756 22.6401C17.1174 22.6433 18.0252 22.6932 18.948 22.8943C19.0022 22.9054 19.0563 22.9165 19.1121 22.9279C20.2282 23.1585 21.3384 23.4804 22.4042 23.8836C22.7276 24.004 23.0538 24.116 23.3798 24.2291C24.0577 24.4651 24.7301 24.7135 25.4012 24.9685C25.8344 25.1329 26.2699 25.2903 26.7072 25.4438C26.7667 25.4648 26.8262 25.4857 26.8875 25.5073C27.0322 25.5582 27.177 25.609 27.3217 25.6599C27.3217 25.7106 27.3217 25.7613 27.3217 25.8135C26.157 26.3553 25.5474 26.3939 24.3256 25.9672C22.6334 25.3848 20.9431 24.8865 19.1833 24.5555C19.1056 24.5408 19.1056 24.5408 19.0263 24.5259C18.1189 24.3559 17.2443 24.2638 16.3217 24.2723C16.2485 24.2726 16.1754 24.273 16.1 24.2733C15.9226 24.2742 15.7452 24.2755 15.5678 24.2771C15.6333 24.2921 15.6333 24.2921 15.7001 24.3074C17.7575 24.7824 17.7575 24.7824 18.5699 25.1373C18.8435 25.2515 19.1241 25.3466 19.4042 25.4438C19.464 25.4648 19.5239 25.4857 19.5856 25.5073C19.7315 25.5583 19.8775 25.6091 20.0236 25.6599C20.0236 25.7106 20.0236 25.7613 20.0236 25.8135C20.3024 25.8642 20.5813 25.9149 20.8686 25.9672C20.8686 26.0179 20.8686 26.0686 20.8686 26.1208C20.9332 26.1303 20.9977 26.1398 21.0643 26.1496C21.3449 26.2004 21.6123 26.2733 21.8865 26.3513C22.3396 26.477 22.78 26.5596 23.2501 26.5818C23.2501 26.6325 23.2501 26.6832 23.2501 26.7354C23.3247 26.7234 23.3993 26.7114 23.4761 26.6991C23.8662 26.6433 24.2579 26.6325 24.6514 26.6188C24.9427 26.6056 25.2105 26.5785 25.4927 26.5028C25.7599 26.4346 25.9725 26.4117 26.2462 26.4185C26.3191 26.4199 26.392 26.4213 26.4671 26.4227C26.521 26.4245 26.5748 26.4263 26.6303 26.4281C26.6873 26.6332 26.719 26.7706 26.66 26.9776C26.5166 27.1687 26.3746 27.2246 26.155 27.3164C26.0787 27.3486 26.0025 27.3807 25.9239 27.4139C25.8528 27.4435 25.7817 27.4731 25.7085 27.5036C25.6181 27.548 25.5278 27.5924 25.4348 27.6381C25.0261 27.7867 24.5909 27.8737 24.172 27.7341C24.172 27.7848 24.172 27.8355 24.172 27.8877C23.547 27.9097 22.9446 27.8251 22.3282 27.7341C22.3282 27.6834 22.3282 27.6327 22.3282 27.5805C22.1761 27.5805 22.024 27.5805 21.8673 27.5805C21.8673 27.5297 21.8673 27.479 21.8673 27.4268C21.8225 27.4416 21.7776 27.4563 21.7314 27.4715C21.494 27.516 21.3307 27.4249 21.1129 27.3356C20.9517 27.2755 20.8023 27.2413 20.6333 27.2107C20.261 27.1339 19.9233 26.9916 19.5727 26.8471C19.0241 26.623 18.4652 26.436 17.9007 26.2559C17.7794 26.217 17.6583 26.1776 17.5374 26.1375C15.3521 25.4149 12.8366 25.0599 10.5743 25.6599C10.504 25.6784 10.4336 25.6969 10.3611 25.716C9.92091 25.8332 9.48221 25.9548 9.04482 26.0822C8.88424 26.1208 8.88424 26.1208 8.65377 26.1208C8.65377 26.1715 8.65377 26.2222 8.65377 26.2745C8.59148 26.2968 8.52919 26.3192 8.46501 26.3423C7.93996 26.5367 7.45628 26.7535 6.97477 27.0397C6.9204 27.066 6.86603 27.0924 6.81002 27.1195C6.75931 27.0942 6.70861 27.0688 6.65637 27.0427C7.0669 26.6167 7.47573 26.2141 7.95426 25.8648C8.12485 25.7353 8.12485 25.7353 8.29156 25.5566C9.08943 24.776 10.1097 24.2327 11.1026 23.7432C11.2455 23.6725 11.3872 23.5994 11.5286 23.5259C12.2261 23.1781 12.9647 22.9806 13.7241 22.8174C13.7912 22.8029 13.8582 22.7884 13.9274 22.7734C14.6145 22.6413 15.2934 22.6366 15.9904 22.6398Z" fill="#909090"/>
<path d="M13.9745 24.5331C14.0487 24.5405 14.1228 24.548 14.1993 24.5556C14.296 24.5666 14.296 24.5666 14.3946 24.5778C14.5734 24.5846 14.7051 24.5557 14.8763 24.5076C15.1378 24.4969 15.3181 24.5013 15.5677 24.5844C15.7323 24.5545 15.7323 24.5545 15.875 24.5076C15.875 24.5583 15.875 24.609 15.875 24.6613C15.9329 24.6004 15.9329 24.6004 15.992 24.5382C16.2267 24.4057 16.3529 24.4405 16.6073 24.5081C16.6869 24.5316 16.6869 24.5316 16.768 24.5556C16.8228 24.5707 16.8775 24.5857 16.934 24.6012C17.0935 24.6455 17.2525 24.6916 17.4114 24.7381C17.5265 24.77 17.5265 24.77 17.644 24.8026C17.9635 24.8937 18.2615 25.0033 18.5665 25.1362C18.8413 25.2506 19.1228 25.3463 19.404 25.4439C19.4639 25.4648 19.5237 25.4858 19.5854 25.5074C19.7314 25.5584 19.8774 25.6092 20.0234 25.66C20.0234 25.7107 20.0234 25.7614 20.0234 25.8136C20.4417 25.8897 20.4417 25.8897 20.8684 25.9672C20.8684 26.018 20.8684 26.0687 20.8684 26.1209C20.933 26.1304 20.9976 26.1399 21.0641 26.1497C21.3447 26.2005 21.6121 26.2733 21.8864 26.3514C22.3395 26.4771 22.7798 26.5597 23.25 26.5818C23.25 26.6325 23.25 26.6832 23.25 26.7355C23.3245 26.7235 23.3991 26.7115 23.4759 26.6992C23.866 26.6434 24.2578 26.6326 24.6512 26.6189C24.9425 26.6057 25.2104 26.5786 25.4925 26.5029C25.7597 26.4347 25.9724 26.4117 26.2461 26.4186C26.3554 26.4207 26.3554 26.4207 26.4669 26.4228C26.5477 26.4255 26.5477 26.4255 26.6302 26.4282C26.6871 26.6333 26.7189 26.7707 26.6599 26.9776C26.5164 27.1688 26.3744 27.2247 26.1548 27.3165C26.0786 27.3486 26.0023 27.3808 25.9238 27.414C25.8527 27.4436 25.7816 27.4732 25.7083 27.5037C25.618 27.5481 25.5277 27.5924 25.4346 27.6381C25.0259 27.7868 24.5907 27.8738 24.1718 27.7342C24.1718 27.7849 24.1718 27.8356 24.1718 27.8878C23.5468 27.9098 22.9445 27.8251 22.3281 27.7342C22.3281 27.6835 22.3281 27.6328 22.3281 27.5805C22.176 27.5805 22.0239 27.5805 21.8671 27.5805C21.8671 27.5298 21.8671 27.4791 21.8671 27.4269C21.8223 27.4416 21.7774 27.4564 21.7312 27.4716C21.4938 27.5161 21.3306 27.425 21.1127 27.3357C20.9515 27.2756 20.8021 27.2414 20.6332 27.2108C20.2609 27.1339 19.9232 26.9917 19.5725 26.8472C19.0239 26.623 18.465 26.4361 17.9005 26.256C17.7792 26.2171 17.6581 26.1777 17.5372 26.1376C15.2416 25.3786 12.7981 25.1452 10.4205 25.66C10.4712 25.5839 10.5219 25.5078 10.5742 25.4295C10.6041 25.2766 10.6304 25.1229 10.651 24.9685C10.7144 24.948 10.7778 24.9274 10.8431 24.9061C11.0291 24.843 11.2132 24.7737 11.3952 24.6997C12.2626 24.3789 13.0674 24.4408 13.9745 24.5331Z" fill="#C0BFBE"/>
<path d="M14.9532 24.2003C17.4022 24.168 17.4022 24.168 18.4103 24.3539C18.5414 24.3775 18.5414 24.3775 18.6751 24.4015C18.9872 24.458 19.299 24.516 19.6106 24.5748C19.661 24.5842 19.7114 24.5937 19.7633 24.6034C20.4779 24.7384 21.1708 24.914 21.8673 25.1222C22.0187 25.1653 22.1701 25.2082 22.3216 25.2509C23.1342 25.483 23.938 25.724 24.7274 26.027C25.3544 26.2594 25.9133 26.3711 26.5439 26.092C27.0079 25.8919 27.0079 25.8919 27.1927 25.849C27.2353 25.8373 27.2779 25.8256 27.3217 25.8136C27.3471 25.7629 27.3724 25.7122 27.3986 25.6599C27.4746 25.6853 27.5507 25.7106 27.629 25.7367C27.629 25.686 27.629 25.6353 27.629 25.5831C27.7003 25.5522 27.7003 25.5522 27.7731 25.5207C27.9593 25.4329 27.9593 25.4329 28.09 25.199C28.3684 25.1077 28.3684 25.1077 28.6277 25.0453C28.5409 25.2664 28.4683 25.3571 28.2772 25.5063C28.075 25.6722 28.0584 25.7228 28.0131 25.9672C28.0613 25.971 28.1094 25.9747 28.159 25.9786C28.2218 25.9843 28.2846 25.9901 28.3492 25.996C28.4116 26.0014 28.474 26.0067 28.5383 26.0122C28.7045 26.044 28.7045 26.044 28.8582 26.1977C28.8075 26.223 28.7568 26.2484 28.7045 26.2745C28.6538 26.2491 28.6031 26.2238 28.5509 26.1977C28.5256 26.2737 28.5002 26.3498 28.4741 26.4281C28.4234 26.4028 28.3727 26.3774 28.3204 26.3513C28.2951 26.2753 28.2697 26.1992 28.2436 26.1208C28.1422 26.1208 28.0408 26.1208 27.9363 26.1208C27.9372 26.169 27.9381 26.2171 27.939 26.2667C27.9397 26.3295 27.9404 26.3923 27.9411 26.4569C27.942 26.5193 27.9429 26.5817 27.9438 26.646C27.9363 26.8123 27.9363 26.8123 27.8595 26.9659C27.9956 26.9882 27.9956 26.9882 28.1344 27.0109C28.254 27.0311 28.3737 27.0513 28.4933 27.0715C28.553 27.0812 28.6127 27.0909 28.6742 27.1009C28.9688 27.1513 29.2085 27.2053 29.4728 27.35C29.5488 27.35 29.6249 27.35 29.7032 27.35C29.7032 27.4007 29.7032 27.4514 29.7032 27.5037C29.2091 27.5355 28.8899 27.4735 28.4393 27.2741C28.1823 27.172 27.9265 27.129 27.6551 27.0814C27.3964 27.0257 27.1759 26.9262 26.9376 26.8123C26.8616 26.8883 26.7855 26.9644 26.7072 27.0427C26.6322 26.8178 26.624 26.662 26.6303 26.4281C26.4996 26.4448 26.4996 26.4448 26.3663 26.4617C26.0676 26.4995 25.7686 26.531 25.469 26.5602C25.3178 26.5751 25.3178 26.5751 25.1707 26.6586C25.052 26.6703 24.9328 26.6777 24.8136 26.6829C24.7072 26.6877 24.7072 26.6877 24.5987 26.6927C24.5245 26.6957 24.4502 26.6987 24.3737 26.7018C24.3 26.7051 24.2263 26.7085 24.1504 26.7119C23.8498 26.7251 23.5511 26.7354 23.2501 26.7354C23.2501 26.6847 23.2501 26.634 23.2501 26.5818C23.196 26.5965 23.1418 26.6113 23.086 26.6265C22.8312 26.6637 22.6668 26.6262 22.4195 26.5578C22.3388 26.536 22.2581 26.5142 22.1749 26.4918C22.0987 26.4708 22.0226 26.4498 21.9441 26.4281C21.8322 26.4006 21.7202 26.3733 21.608 26.3465C21.3568 26.2816 21.1134 26.2065 20.8686 26.1208C20.8686 26.0701 20.8686 26.0194 20.8686 25.9672C20.5897 25.9165 20.3109 25.8658 20.0236 25.8136C20.0236 25.7629 20.0236 25.7122 20.0236 25.6599C19.9797 25.6468 19.9358 25.6338 19.8906 25.6203C19.7572 25.5804 19.6239 25.5404 19.4906 25.5003C19.3274 25.4511 19.1642 25.4024 19.0009 25.3538C18.9153 25.3281 18.8297 25.3023 18.7416 25.2758C18.6621 25.252 18.5825 25.2283 18.5006 25.2038C18.2566 25.1222 18.2566 25.1222 17.9974 25.0093C17.6954 24.8818 17.3957 24.7868 17.0803 24.6996C17.0213 24.6832 16.9624 24.6668 16.9016 24.6499C16.2601 24.4776 15.6099 24.3726 14.9532 24.2771C14.9532 24.2517 14.9532 24.2264 14.9532 24.2003Z" fill="#FBF9F8"/>
<path d="M16.1824 24.4308C16.2585 24.5448 16.2585 24.5448 16.3361 24.6612C15.9063 24.6612 15.4946 24.6555 15.0694 24.5937C14.8656 24.5772 14.8656 24.5772 14.6234 24.6252C14.3108 24.6647 14.0326 24.6368 13.7241 24.5892C12.8179 24.4547 11.9453 24.4836 11.1121 24.8917C11.0408 24.9123 10.9695 24.9329 10.896 24.9541C10.6555 25.0847 10.6571 25.2527 10.5743 25.5063C10.2587 25.7439 9.90224 25.8374 9.52763 25.9432C9.469 25.9605 9.41038 25.9778 9.34998 25.9956C9.11157 26.0644 8.90314 26.1209 8.65377 26.1209C8.65377 26.1716 8.65377 26.2223 8.65377 26.2745C8.59148 26.2969 8.52919 26.3193 8.46501 26.3423C7.93996 26.5367 7.45628 26.7535 6.97477 27.0397C6.9204 27.0661 6.86603 27.0924 6.81002 27.1196C6.75931 27.0942 6.70861 27.0689 6.65637 27.0427C6.90989 26.7892 7.1634 26.5357 7.4246 26.2745C7.4753 26.2999 7.52601 26.3252 7.57825 26.3513C7.85395 26.3 7.85395 26.3 8.11601 26.1977C8.14136 26.1216 8.16671 26.0456 8.19283 25.9672C8.36028 25.8634 8.36028 25.8634 8.56734 25.7656C8.63528 25.7329 8.70321 25.7002 8.7732 25.6665C8.96106 25.5831 8.96106 25.5831 9.19153 25.5063C9.2248 25.4683 9.25808 25.4302 9.29236 25.391C9.47429 25.2293 9.64592 25.2253 9.88293 25.199C9.88293 25.1483 9.88293 25.0976 9.88293 25.0453C10.7613 24.7301 11.6186 24.4537 12.5432 24.3161C12.785 24.2849 12.785 24.2849 12.9477 24.2372C13.9129 24.0169 15.2427 24.118 16.1824 24.4308Z" fill="#909090"/>
<path d="M65.1033 20.384L71.0313 13.736H73.7433L68.3673 19.568L72.0153 29H66.7833L64.6713 22.304L63.2553 29H58.0713L61.3113 13.76H66.5193L65.1033 20.384ZM78.2649 29H73.3929L75.5769 18.68H80.4969L78.2649 29ZM81.1209 15.536C81.1209 15.904 81.0409 16.224 80.8809 16.496C80.7369 16.768 80.5369 17 80.2809 17.192C80.0409 17.384 79.7609 17.528 79.4409 17.624C79.1209 17.72 78.7929 17.768 78.4569 17.768C77.8169 17.768 77.2809 17.616 76.8489 17.312C76.4169 17.008 76.2009 16.528 76.2009 15.872C76.2009 15.52 76.2729 15.208 76.4169 14.936C76.5609 14.648 76.7529 14.416 76.9929 14.24C77.2489 14.048 77.5369 13.904 77.8569 13.808C78.1929 13.712 78.5369 13.664 78.8889 13.664C79.5129 13.664 80.0409 13.816 80.4729 14.12C80.9049 14.424 81.1209 14.896 81.1209 15.536ZM88.0561 20.216C88.3921 19.896 88.7681 19.6 89.1841 19.328C89.5521 19.104 89.9841 18.896 90.4801 18.704C90.9761 18.512 91.5281 18.416 92.1361 18.416C92.9681 18.416 93.6561 18.632 94.2001 19.064C94.7441 19.48 95.0161 20.056 95.0161 20.792C95.0161 21 94.9921 21.256 94.9441 21.56C94.8961 21.848 94.8401 22.152 94.7761 22.472C94.7121 22.792 94.6401 23.12 94.5601 23.456C94.4961 23.776 94.4401 24.064 94.3921 24.32L93.3841 29H88.5121L89.8321 22.736C89.8641 22.528 89.9041 22.32 89.9521 22.112C90.0001 21.888 90.0241 21.688 90.0241 21.512C90.0241 21.272 89.9601 21.08 89.8321 20.936C89.7201 20.776 89.5441 20.696 89.3041 20.696C89.0161 20.696 88.7361 20.8 88.4641 21.008C88.2081 21.216 88.0081 21.392 87.8641 21.536L86.2801 29H81.3841L83.5681 18.68H87.4801L87.9121 20.216H88.0561ZM106.439 18.68H110.327L108.359 28.016C108.215 28.736 107.975 29.4 107.639 30.008C107.303 30.616 106.831 31.144 106.223 31.592C105.631 32.04 104.879 32.392 103.967 32.648C103.071 32.904 101.975 33.032 100.679 33.032C100.439 33.032 100.151 33.024 99.8146 33.008C99.4786 33.008 99.1346 33 98.7826 32.984C98.4306 32.984 98.0946 32.976 97.7746 32.96C97.4546 32.944 97.1986 32.928 97.0066 32.912L97.4626 31.184C97.9746 31.264 98.4946 31.304 99.0226 31.304C99.5666 31.32 100.031 31.328 100.415 31.328C100.895 31.328 101.295 31.28 101.615 31.184C101.951 31.104 102.223 30.968 102.431 30.776C102.655 30.584 102.831 30.328 102.959 30.008C103.103 29.688 103.215 29.296 103.295 28.832L103.583 27.272H103.415C103.319 27.416 103.175 27.592 102.983 27.8C102.807 27.992 102.575 28.184 102.287 28.376C101.999 28.552 101.655 28.704 101.255 28.832C100.871 28.944 100.431 29 99.9346 29C99.3746 29 98.8946 28.92 98.4946 28.76C98.1106 28.584 97.7986 28.352 97.5586 28.064C97.3186 27.76 97.1426 27.408 97.0306 27.008C96.9186 26.592 96.8626 26.144 96.8626 25.664C96.8626 25.456 96.8786 25.136 96.9106 24.704C96.9426 24.272 97.0146 23.784 97.1266 23.24C97.2546 22.696 97.4306 22.144 97.6546 21.584C97.8946 21.008 98.2066 20.488 98.5906 20.024C98.9906 19.56 99.4786 19.176 100.055 18.872C100.647 18.568 101.359 18.416 102.191 18.416C102.447 18.416 102.727 18.44 103.031 18.488C103.335 18.536 103.631 18.624 103.919 18.752C104.207 18.88 104.463 19.064 104.687 19.304C104.911 19.544 105.087 19.856 105.215 20.24H105.359L106.439 18.68ZM103.751 20.768C103.367 20.768 103.047 20.976 102.791 21.392C102.535 21.792 102.327 22.264 102.167 22.808C102.007 23.352 101.887 23.896 101.807 24.44C101.743 24.968 101.711 25.36 101.711 25.616C101.711 25.936 101.759 26.208 101.855 26.432C101.967 26.64 102.159 26.744 102.431 26.744C102.591 26.744 102.743 26.704 102.887 26.624C103.047 26.544 103.191 26.456 103.319 26.36C103.463 26.248 103.583 26.136 103.679 26.024C103.791 25.912 103.871 25.824 103.919 25.76L104.807 21.56C104.679 21.384 104.527 21.208 104.351 21.032C104.191 20.856 103.991 20.768 103.751 20.768ZM120.938 18.176C120.986 17.936 121.01 17.608 121.01 17.192C121.01 16.952 120.994 16.72 120.962 16.496C120.93 16.256 120.874 16.048 120.794 15.872C120.714 15.68 120.594 15.536 120.434 15.44C120.274 15.328 120.066 15.272 119.81 15.272C119.522 15.272 119.258 15.336 119.018 15.464C118.778 15.592 118.562 15.76 118.37 15.968C118.194 16.16 118.05 16.392 117.938 16.664C117.842 16.92 117.794 17.192 117.794 17.48C117.794 17.896 117.898 18.216 118.106 18.44C118.33 18.664 118.618 18.848 118.97 18.992C119.322 19.136 119.722 19.256 120.17 19.352C120.618 19.448 121.082 19.56 121.562 19.688C121.962 19.8 122.362 19.944 122.762 20.12C123.162 20.296 123.514 20.536 123.818 20.84C124.138 21.128 124.394 21.512 124.586 21.992C124.778 22.456 124.874 23.04 124.874 23.744C124.874 24.752 124.674 25.6 124.274 26.288C123.874 26.976 123.322 27.536 122.618 27.968C121.914 28.4 121.074 28.712 120.098 28.904C119.138 29.096 118.09 29.192 116.954 29.192C115.802 29.192 114.858 29.12 114.122 28.976C113.402 28.816 112.834 28.648 112.418 28.472C111.922 28.264 111.554 28.024 111.314 27.752L112.13 24.464H116.354C116.338 24.608 116.322 24.808 116.306 25.064C116.29 25.304 116.282 25.496 116.282 25.64C116.282 25.832 116.306 26.032 116.354 26.24C116.402 26.448 116.474 26.64 116.57 26.816C116.682 26.992 116.834 27.136 117.026 27.248C117.218 27.36 117.458 27.416 117.746 27.416C118.066 27.416 118.346 27.344 118.586 27.2C118.842 27.056 119.05 26.88 119.21 26.672C119.386 26.448 119.514 26.208 119.594 25.952C119.69 25.68 119.738 25.416 119.738 25.16C119.738 24.808 119.65 24.512 119.474 24.272C119.314 24.032 119.09 23.832 118.802 23.672C118.514 23.496 118.178 23.352 117.794 23.24C117.426 23.112 117.042 22.984 116.642 22.856C116.258 22.744 115.85 22.608 115.418 22.448C115.002 22.288 114.618 22.064 114.266 21.776C113.914 21.488 113.618 21.128 113.378 20.696C113.154 20.248 113.042 19.68 113.042 18.992C113.042 17.968 113.298 17.112 113.81 16.424C114.338 15.72 114.994 15.152 115.778 14.72C116.578 14.288 117.45 13.984 118.394 13.808C119.338 13.616 120.234 13.52 121.082 13.52C122.202 13.52 123.162 13.656 123.962 13.928C124.778 14.184 125.394 14.488 125.81 14.84L124.922 18.176H120.938ZM134.088 18.416C135.992 18.416 137.376 18.752 138.24 19.424C139.152 20.128 139.608 21.296 139.608 22.928C139.608 23.936 139.44 24.848 139.104 25.664C138.768 26.464 138.296 27.128 137.688 27.656C136.472 28.68 134.712 29.192 132.408 29.192C130.44 29.192 129.032 28.816 128.184 28.064C127.272 27.28 126.816 26.104 126.816 24.536C126.816 23.496 127.024 22.552 127.44 21.704C127.872 20.856 128.488 20.152 129.288 19.592C130.456 18.808 132.056 18.416 134.088 18.416ZM132.456 27.56C132.856 27.56 133.2 27.336 133.488 26.888C133.792 26.44 134.032 25.896 134.208 25.256C134.384 24.6 134.512 23.928 134.592 23.24C134.688 22.536 134.736 21.928 134.736 21.416C134.736 20.968 134.688 20.632 134.592 20.408C134.512 20.168 134.328 20.048 134.04 20.048C133.608 20.048 133.232 20.28 132.912 20.744C132.608 21.208 132.36 21.76 132.168 22.4C131.976 23.04 131.832 23.696 131.736 24.368C131.656 25.04 131.616 25.584 131.616 26C131.616 27.04 131.896 27.56 132.456 27.56ZM148.852 18.416C150.756 18.416 152.14 18.752 153.004 19.424C153.916 20.128 154.372 21.296 154.372 22.928C154.372 23.936 154.204 24.848 153.868 25.664C153.532 26.464 153.06 27.128 152.452 27.656C151.236 28.68 149.476 29.192 147.172 29.192C145.204 29.192 143.796 28.816 142.948 28.064C142.036 27.28 141.58 26.104 141.58 24.536C141.58 23.496 141.788 22.552 142.204 21.704C142.636 20.856 143.252 20.152 144.052 19.592C145.22 18.808 146.82 18.416 148.852 18.416ZM147.22 27.56C147.62 27.56 147.964 27.336 148.252 26.888C148.556 26.44 148.796 25.896 148.972 25.256C149.148 24.6 149.276 23.928 149.356 23.24C149.452 22.536 149.5 21.928 149.5 21.416C149.5 20.968 149.452 20.632 149.356 20.408C149.276 20.168 149.092 20.048 148.804 20.048C148.372 20.048 147.996 20.28 147.676 20.744C147.372 21.208 147.124 21.76 146.932 22.4C146.74 23.04 146.596 23.696 146.5 24.368C146.42 25.04 146.38 25.584 146.38 26C146.38 27.04 146.66 27.56 147.22 27.56Z" fill="white" fill-opacity="0.9"/>
</svg>
